REM DIRINDEX 1\2,1\3\5,1\3\6,1\4\7,1\4\8
REM DIRNAME cjc139,folder01,folder02,folder03,folder04,folder05,folder06,folder07
TITLE ""
FILE "JE_20.mp3" MP3
  TRACK 01 AUDIO
    TITLE "0:"
    INDEX 01 00:00:00
  TRACK 02 AUDIO
    TITLE "7:cjc139_3892"
    INDEX 01 00:00:19
  TRACK 03 AUDIO
    TITLE "0:"
    INDEX 01 00:02:02
  TRACK 04 AUDIO
    TITLE "8:cjc139_3893"
    INDEX 01 00:04:62
  TRACK 05 AUDIO
    TITLE "0:"
    INDEX 01 00:06:37
  TRACK 06 AUDIO
    TITLE "7:cjc139_3894"
    INDEX 01 00:09:26
  TRACK 07 AUDIO
    TITLE "0:"
    INDEX 01 00:11:60
  TRACK 08 AUDIO
    TITLE "8:cjc139_3895"
    INDEX 01 00:14:45
  TRACK 09 AUDIO
    TITLE "0:"
    INDEX 01 00:16:63
  TRACK 10 AUDIO
    TITLE "7:cjc139_3896"
    INDEX 01 00:19:48
  TRACK 11 AUDIO
    TITLE "0:"
    INDEX 01 00:22:05
  TRACK 12 AUDIO
    TITLE "8:cjc139_3897"
    INDEX 01 00:24:65
  TRACK 13 AUDIO
    TITLE "0:"
    INDEX 01 00:27:10
  TRACK 14 AUDIO
    TITLE "7:cjc139_3898"
    INDEX 01 00:29:68
  TRACK 15 AUDIO
    TITLE "0:"
    INDEX 01 00:33:28
  TRACK 16 AUDIO
    TITLE "8:cjc139_3899"
    INDEX 01 00:36:13
  TRACK 17 AUDIO
    TITLE "0:"
    INDEX 01 00:39:41
  TRACK 18 AUDIO
    TITLE "7:cjc139_3900"
    INDEX 01 00:42:25
  TRACK 19 AUDIO
    TITLE "0:"
    INDEX 01 00:44:36
  TRACK 20 AUDIO
    TITLE "8:cjc139_3901"
    INDEX 01 00:47:23
  TRACK 21 AUDIO
    TITLE "0:"
    INDEX 01 00:49:63
  TRACK 22 AUDIO
    TITLE "7:cjc139_3902"
    INDEX 01 00:52:47
  TRACK 23 AUDIO
    TITLE "0:"
    INDEX 01 00:54:64
  TRACK 24 AUDIO
    TITLE "8:cjc139_3903"
    INDEX 01 00:57:48
  TRACK 25 AUDIO
    TITLE "0:"
    INDEX 01 00:59:67
  TRACK 26 AUDIO
    TITLE "7:cjc139_3904"
    INDEX 01 01:02:55
  TRACK 27 AUDIO
    TITLE "0:"
    INDEX 01 01:04:56
  TRACK 28 AUDIO
    TITLE "8:cjc139_3905"
    INDEX 01 01:07:39
  TRACK 29 AUDIO
    TITLE "0:"
    INDEX 01 01:10:18
  TRACK 30 AUDIO
    TITLE "7:cjc139_3906"
    INDEX 01 01:13:02
  TRACK 31 AUDIO
    TITLE "0:"
    INDEX 01 01:15:05
  TRACK 32 AUDIO
    TITLE "8:cjc139_3907"
    INDEX 01 01:17:65
  TRACK 33 AUDIO
    TITLE "0:"
    INDEX 01 01:20:20
  TRACK 34 AUDIO
    TITLE "7:cjc139_3908"
    INDEX 01 01:23:03
  TRACK 35 AUDIO
    TITLE "0:"
    INDEX 01 01:25:19
  TRACK 36 AUDIO
    TITLE "8:cjc139_3909"
    INDEX 01 01:28:06
  TRACK 37 AUDIO
    TITLE "0:"
    INDEX 01 01:30:54
  TRACK 38 AUDIO
    TITLE "7:cjc139_3910"
    INDEX 01 01:33:44
  TRACK 39 AUDIO
    TITLE "0:"
    INDEX 01 01:35:20
  TRACK 40 AUDIO
    TITLE "8:cjc139_3911"
    INDEX 01 01:38:04
  TRACK 41 AUDIO
    TITLE "0:"
    INDEX 01 01:39:68
  TRACK 42 AUDIO
    TITLE "7:cjc139_3912"
    INDEX 01 01:42:55
  TRACK 43 AUDIO
    TITLE "0:"
    INDEX 01 01:47:64
  TRACK 44 AUDIO
    TITLE "8:cjc139_3913"
    INDEX 01 01:50:47
  TRACK 45 AUDIO
    TITLE "0:"
    INDEX 01 01:54:17
  TRACK 46 AUDIO
    TITLE "7:cjc139_3914"
    INDEX 01 01:57:00
  TRACK 47 AUDIO
    TITLE "0:"
    INDEX 01 02:00:74
  TRACK 48 AUDIO
    TITLE "8:cjc139_3915"
    INDEX 01 02:03:57
  TRACK 49 AUDIO
    TITLE "0:"
    INDEX 01 02:07:12
  TRACK 50 AUDIO
    TITLE "7:cjc139_3916"
    INDEX 01 02:09:73
  TRACK 51 AUDIO
    TITLE "0:"
    INDEX 01 02:14:08
  TRACK 52 AUDIO
    TITLE "8:cjc139_3917"
    INDEX 01 02:16:72
  TRACK 53 AUDIO
    TITLE "0:"
    INDEX 01 02:19:52
  TRACK 54 AUDIO
    TITLE "7:cjc139_3918"
    INDEX 01 02:22:39
  TRACK 55 AUDIO
    TITLE "0:"
    INDEX 01 02:23:50
  TRACK 56 AUDIO
    TITLE "8:cjc139_3919"
    INDEX 01 02:26:35
  TRACK 57 AUDIO
    TITLE "0:"
    INDEX 01 02:28:10
  TRACK 58 AUDIO
    TITLE "7:cjc139_3920"
    INDEX 01 02:30:72
  TRACK 59 AUDIO
    TITLE "0:"
    INDEX 01 02:32:69
  TRACK 60 AUDIO
    TITLE "8:cjc139_3921"
    INDEX 01 02:35:53
  TRACK 61 AUDIO
    TITLE "0:"
    INDEX 01 02:37:58
  TRACK 62 AUDIO
    TITLE "7:cjc139_3922"
    INDEX 01 02:40:43
  TRACK 63 AUDIO
    TITLE "0:"
    INDEX 01 02:43:04
  TRACK 64 AUDIO
    TITLE "8:cjc139_3923"
    INDEX 01 02:45:63
  TRACK 65 AUDIO
    TITLE "0:"
    INDEX 01 02:48:58
  TRACK 66 AUDIO
    TITLE "7:cjc139_3924"
    INDEX 01 02:51:46
  TRACK 67 AUDIO
    TITLE "0:"
    INDEX 01 02:52:46
  TRACK 68 AUDIO
    TITLE "8:cjc139_3925"
    INDEX 01 02:55:30
  TRACK 69 AUDIO
    TITLE "0:"
    INDEX 01 02:56:40
  TRACK 70 AUDIO
    TITLE "7:cjc139_3926"
    INDEX 01 02:59:26
  TRACK 71 AUDIO
    TITLE "0:"
    INDEX 01 03:01:23
  TRACK 72 AUDIO
    TITLE "8:cjc139_3927"
    INDEX 01 03:04:08
  TRACK 73 AUDIO
    TITLE "0:"
    INDEX 01 03:06:09
  TRACK 74 AUDIO
    TITLE "7:cjc139_3928"
    INDEX 01 03:08:74
  TRACK 75 AUDIO
    TITLE "0:"
    INDEX 01 03:10:67
  TRACK 76 AUDIO
    TITLE "8:cjc139_3929"
    INDEX 01 03:13:52
  TRACK 77 AUDIO
    TITLE "0:"
    INDEX 01 03:16:17
  TRACK 78 AUDIO
    TITLE "7:cjc139_3930"
    INDEX 01 03:19:05
  TRACK 79 AUDIO
    TITLE "0:"
    INDEX 01 03:21:61
  TRACK 80 AUDIO
    TITLE "8:cjc139_3931"
    INDEX 01 03:24:48
  TRACK 81 AUDIO
    TITLE "0:"
    INDEX 01 03:27:21
  TRACK 82 AUDIO
    TITLE "7:cjc139_3932"
    INDEX 01 03:30:07
  TRACK 83 AUDIO
    TITLE "0:"
    INDEX 01 03:32:49
  TRACK 84 AUDIO
    TITLE "8:cjc139_3933"
    INDEX 01 03:35:36
  TRACK 85 AUDIO
    TITLE "0:"
    INDEX 01 03:38:48
  TRACK 86 AUDIO
    TITLE "7:cjc139_3934"
    INDEX 01 03:41:34
  TRACK 87 AUDIO
    TITLE "0:"
    INDEX 01 03:43:67
  TRACK 88 AUDIO
    TITLE "8:cjc139_3935"
    INDEX 01 03:46:51
  TRACK 89 AUDIO
    TITLE "0:"
    INDEX 01 03:49:34
  TRACK 90 AUDIO
    TITLE "7:cjc139_3936"
    INDEX 01 03:52:21
  TRACK 91 AUDIO
    TITLE "0:"
    INDEX 01 03:55:23
  TRACK 92 AUDIO
    TITLE "8:cjc139_3937"
    INDEX 01 03:58:07
  TRACK 93 AUDIO
    TITLE "0:"
    INDEX 01 04:01:04
  TRACK 94 AUDIO
    TITLE "7:cjc139_3938"
    INDEX 01 04:03:63
  TRACK 95 AUDIO
    TITLE "0:"
    INDEX 01 04:06:23
  TRACK 96 AUDIO
    TITLE "8:cjc139_3939"
    INDEX 01 04:09:07
  TRACK 97 AUDIO
    TITLE "0:"
    INDEX 01 04:11:26
  TRACK 98 AUDIO
    TITLE "7:cjc139_3940"
    INDEX 01 04:14:14
  TRACK 99 AUDIO
    TITLE "0:"
    INDEX 01 04:16:31
  TRACK 100 AUDIO
    TITLE "8:cjc139_3941"
    INDEX 01 04:19:17
  TRACK 101 AUDIO
    TITLE "0:"
    INDEX 01 04:21:48
  TRACK 102 AUDIO
    TITLE "7:cjc139_3942"
    INDEX 01 04:24:32
  TRACK 103 AUDIO
    TITLE "0:"
    INDEX 01 04:27:60
  TRACK 104 AUDIO
    TITLE "8:cjc139_3943"
    INDEX 01 04:30:45
  TRACK 105 AUDIO
    TITLE "0:"
    INDEX 01 04:33:74
  TRACK 106 AUDIO
    TITLE "7:cjc139_3944"
    INDEX 01 04:36:61
  TRACK 107 AUDIO
    TITLE "0:"
    INDEX 01 04:42:60
  TRACK 108 AUDIO
    TITLE "8:cjc139_3945"
    INDEX 01 04:45:44
  TRACK 109 AUDIO
    TITLE "0:"
    INDEX 01 04:50:59
  TRACK 110 AUDIO
    TITLE "7:cjc139_3946"
    INDEX 01 04:53:42
  TRACK 111 AUDIO
    TITLE "0:"
    INDEX 01 04:56:56
  TRACK 112 AUDIO
    TITLE "8:cjc139_3947"
    INDEX 01 04:59:44
  TRACK 113 AUDIO
    TITLE "0:"
    INDEX 01 05:03:21
  TRACK 114 AUDIO
    TITLE "7:cjc139_3948"
    INDEX 01 05:06:05
  TRACK 115 AUDIO
    TITLE "0:"
    INDEX 01 05:09:02
  TRACK 116 AUDIO
    TITLE "8:cjc139_3949"
    INDEX 01 05:11:61
  TRACK 117 AUDIO
    TITLE "0:"
    INDEX 01 05:16:06
  TRACK 118 AUDIO
    TITLE "7:cjc139_3950"
    INDEX 01 05:18:65
  TRACK 119 AUDIO
    TITLE "0:"
    INDEX 01 05:21:15
  TRACK 120 AUDIO
    TITLE "8:cjc139_3951"
    INDEX 01 05:23:74
  TRACK 121 AUDIO
    TITLE "0:"
    INDEX 01 05:26:37
  TRACK 122 AUDIO
    TITLE "7:cjc139_3952"
    INDEX 01 05:29:22
  TRACK 123 AUDIO
    TITLE "0:"
    INDEX 01 05:32:60
  TRACK 124 AUDIO
    TITLE "8:cjc139_3953"
    INDEX 01 05:35:44
  TRACK 125 AUDIO
    TITLE "0:"
    INDEX 01 05:39:05
  TRACK 126 AUDIO
    TITLE "7:cjc139_3954"
    INDEX 01 05:41:68
  TRACK 127 AUDIO
    TITLE "0:"
    INDEX 01 05:45:46
  TRACK 128 AUDIO
    TITLE "8:cjc139_3955"
    INDEX 01 05:48:29
  TRACK 129 AUDIO
    TITLE "0:"
    INDEX 01 05:52:17
  TRACK 130 AUDIO
    TITLE "7:cjc139_3956"
    INDEX 01 05:55:02
  TRACK 131 AUDIO
    TITLE "0:"
    INDEX 01 05:58:00
  TRACK 132 AUDIO
    TITLE "8:cjc139_3957"
    INDEX 01 06:00:62
  TRACK 133 AUDIO
    TITLE "0:"
    INDEX 01 06:03:64
  TRACK 134 AUDIO
    TITLE "7:cjc139_3958"
    INDEX 01 06:06:49
  TRACK 135 AUDIO
    TITLE "0:"
    INDEX 01 06:08:30
  TRACK 136 AUDIO
    TITLE "8:cjc139_3959"
    INDEX 01 06:11:16
  TRACK 137 AUDIO
    TITLE "0:"
    INDEX 01 06:13:21
  TRACK 138 AUDIO
    TITLE "7:cjc139_3960"
    INDEX 01 06:16:06
  TRACK 139 AUDIO
    TITLE "0:"
    INDEX 01 06:19:47
  TRACK 140 AUDIO
    TITLE "8:cjc139_3961"
    INDEX 01 06:22:32
  TRACK 141 AUDIO
    TITLE "0:"
    INDEX 01 06:26:63
  TRACK 142 AUDIO
    TITLE "7:cjc139_3962"
    INDEX 01 06:29:48
  TRACK 143 AUDIO
    TITLE "0:"
    INDEX 01 06:33:59
  TRACK 144 AUDIO
    TITLE "8:cjc139_3963"
    INDEX 01 06:36:42
  TRACK 145 AUDIO
    TITLE "0:"
    INDEX 01 06:40:10
  TRACK 146 AUDIO
    TITLE "7:cjc139_3964"
    INDEX 01 06:42:70
  TRACK 147 AUDIO
    TITLE "0:"
    INDEX 01 06:46:36
  TRACK 148 AUDIO
    TITLE "8:cjc139_3965"
    INDEX 01 06:49:23
  TRACK 149 AUDIO
    TITLE "0:"
    INDEX 01 06:53:38
  TRACK 150 AUDIO
    TITLE "7:cjc139_3966"
    INDEX 01 06:56:23
  TRACK 151 AUDIO
    TITLE "0:"
    INDEX 01 06:59:17
  TRACK 152 AUDIO
    TITLE "8:cjc139_3967"
    INDEX 01 07:02:02
  TRACK 153 AUDIO
    TITLE "0:"
    INDEX 01 07:04:34
  TRACK 154 AUDIO
    TITLE "7:cjc139_3968"
    INDEX 01 07:07:17
  TRACK 155 AUDIO
    TITLE "0:"
    INDEX 01 07:11:58
  TRACK 156 AUDIO
    TITLE "8:cjc139_3969"
    INDEX 01 07:14:44
  TRACK 157 AUDIO
    TITLE "0:"
    INDEX 01 07:18:60
  TRACK 158 AUDIO
    TITLE "7:cjc139_3970"
    INDEX 01 07:21:45
  TRACK 159 AUDIO
    TITLE "0:"
    INDEX 01 07:24:25
  TRACK 160 AUDIO
    TITLE "8:cjc139_3971"
    INDEX 01 07:27:10
  TRACK 161 AUDIO
    TITLE "0:"
    INDEX 01 07:30:14
  TRACK 162 AUDIO
    TITLE "7:cjc139_3972"
    INDEX 01 07:33:01
  TRACK 163 AUDIO
    TITLE "0:"
    INDEX 01 07:36:23
  TRACK 164 AUDIO
    TITLE "8:cjc139_3973"
    INDEX 01 07:39:07
  TRACK 165 AUDIO
    TITLE "0:"
    INDEX 01 07:41:55
  TRACK 166 AUDIO
    TITLE "7:cjc139_3974"
    INDEX 01 07:44:40
  TRACK 167 AUDIO
    TITLE "0:"
    INDEX 01 07:46:50
  TRACK 168 AUDIO
    TITLE "8:cjc139_3975"
    INDEX 01 07:49:35
  TRACK 169 AUDIO
    TITLE "0:"
    INDEX 01 07:51:53
  TRACK 170 AUDIO
    TITLE "7:cjc139_3976"
    INDEX 01 07:54:34
  TRACK 171 AUDIO
    TITLE "0:"
    INDEX 01 07:57:11
  TRACK 172 AUDIO
    TITLE "8:cjc139_3977"
    INDEX 01 08:00:00
  TRACK 173 AUDIO
    TITLE "0:"
    INDEX 01 08:02:47
  TRACK 174 AUDIO
    TITLE "7:cjc139_3978"
    INDEX 01 08:05:32
  TRACK 175 AUDIO
    TITLE "0:"
    INDEX 01 08:08:15
  TRACK 176 AUDIO
    TITLE "8:cjc139_3979"
    INDEX 01 08:10:74
  TRACK 177 AUDIO
    TITLE "0:"
    INDEX 01 08:13:57
  TRACK 178 AUDIO
    TITLE "7:cjc139_3980"
    INDEX 01 08:16:44
  TRACK 179 AUDIO
    TITLE "0:"
    INDEX 01 08:20:10
  TRACK 180 AUDIO
    TITLE "8:cjc139_3981"
    INDEX 01 08:22:70
  TRACK 181 AUDIO
    TITLE "0:"
    INDEX 01 08:25:70
  TRACK 182 AUDIO
    TITLE "7:cjc139_3982"
    INDEX 01 08:28:55
  TRACK 183 AUDIO
    TITLE "0:"
    INDEX 01 08:31:47
  TRACK 184 AUDIO
    TITLE "8:cjc139_3983"
    INDEX 01 08:34:30
  TRACK 185 AUDIO
    TITLE "0:"
    INDEX 01 08:37:18
  TRACK 186 AUDIO
    TITLE "7:cjc139_3984"
    INDEX 01 08:40:03
  TRACK 187 AUDIO
    TITLE "0:"
    INDEX 01 08:42:43
  TRACK 188 AUDIO
    TITLE "8:cjc139_3985"
    INDEX 01 08:45:28
  TRACK 189 AUDIO
    TITLE "0:"
    INDEX 01 08:47:68
  TRACK 190 AUDIO
    TITLE "7:cjc139_3986"
    INDEX 01 08:50:54
  TRACK 191 AUDIO
    TITLE "0:"
    INDEX 01 08:54:58
  TRACK 192 AUDIO
    TITLE "8:cjc139_3987"
    INDEX 01 08:57:45
  TRACK 193 AUDIO
    TITLE "0:"
    INDEX 01 09:00:62
  TRACK 194 AUDIO
    TITLE "7:cjc139_3988"
    INDEX 01 09:03:45
  TRACK 195 AUDIO
    TITLE "0:"
    INDEX 01 09:05:44
  TRACK 196 AUDIO
    TITLE "8:cjc139_3989"
    INDEX 01 09:08:29
  TRACK 197 AUDIO
    TITLE "0:"
    INDEX 01 09:10:16
  TRACK 198 AUDIO
    TITLE "7:cjc139_3990"
    INDEX 01 09:13:02
  TRACK 199 AUDIO
    TITLE "0:"
    INDEX 01 09:16:56
  TRACK 200 AUDIO
    TITLE "8:cjc139_3991"
    INDEX 01 09:19:40
  TRACK 201 AUDIO
    TITLE "0:"
    INDEX 01 09:23:09
  TRACK 202 AUDIO
    TITLE "7:cjc139_3992"
    INDEX 01 09:25:74
  TRACK 203 AUDIO
    TITLE "0:"
    INDEX 01 09:28:47
  TRACK 204 AUDIO
    TITLE "8:cjc139_3993"
    INDEX 01 09:31:34
  TRACK 205 AUDIO
    TITLE "0:"
    INDEX 01 09:34:22
  TRACK 206 AUDIO
    TITLE "7:cjc139_3994"
    INDEX 01 09:37:09
  TRACK 207 AUDIO
    TITLE "0:"
    INDEX 01 09:39:68
  TRACK 208 AUDIO
    TITLE "8:cjc139_3995"
    INDEX 01 09:42:53
  TRACK 209 AUDIO
    TITLE "0:"
    INDEX 01 09:45:30
  TRACK 210 AUDIO
    TITLE "7:cjc139_3996"
    INDEX 01 09:48:16
  TRACK 211 AUDIO
    TITLE "0:"
    INDEX 01 09:51:05
  TRACK 212 AUDIO
    TITLE "8:cjc139_3997"
    INDEX 01 09:53:65
  TRACK 213 AUDIO
    TITLE "0:"
    INDEX 01 09:56:28
  TRACK 214 AUDIO
    TITLE "7:cjc139_3998"
    INDEX 01 09:59:14
  TRACK 215 AUDIO
    TITLE "0:"
    INDEX 01 10:01:62
  TRACK 216 AUDIO
    TITLE "8:cjc139_3999"
    INDEX 01 10:04:45
  TRACK 217 AUDIO
    TITLE "0:"
    INDEX 01 10:06:34
  TRACK 218 AUDIO
    TITLE "7:cjc139_4000"
    INDEX 01 10:09:19
  TRACK 219 AUDIO
    TITLE "0:"
    INDEX 01 10:11:74
  TRACK 220 AUDIO
    TITLE "8:cjc139_4001"
    INDEX 01 10:14:57
  TRACK 221 AUDIO
    TITLE "0:"
    INDEX 01 10:18:00
  TRACK 222 AUDIO
    TITLE "7:cjc139_4002"
    INDEX 01 10:20:61
  TRACK 223 AUDIO
    TITLE "0:"
    INDEX 01 10:23:32
  TRACK 224 AUDIO
    TITLE "8:cjc139_4003"
    INDEX 01 10:26:13
  TRACK 225 AUDIO
    TITLE "0:"
    INDEX 01 10:29:04
  TRACK 226 AUDIO
    TITLE "7:cjc139_4004"
    INDEX 01 10:31:65
  TRACK 227 AUDIO
    TITLE "0:"
    INDEX 01 10:34:73
  TRACK 228 AUDIO
    TITLE "8:cjc139_4005"
    INDEX 01 10:37:58
  TRACK 229 AUDIO
    TITLE "0:"
    INDEX 01 10:41:26
  TRACK 230 AUDIO
    TITLE "7:cjc139_4006"
    INDEX 01 10:44:15
  TRACK 231 AUDIO
    TITLE "0:"
    INDEX 01 10:45:63
  TRACK 232 AUDIO
    TITLE "8:cjc139_4007"
    INDEX 01 10:48:50
  TRACK 233 AUDIO
    TITLE "0:"
    INDEX 01 10:50:29
  TRACK 234 AUDIO
    TITLE "7:cjc139_4008"
    INDEX 01 10:53:14
  TRACK 235 AUDIO
    TITLE "0:"
    INDEX 01 10:55:58
  TRACK 236 AUDIO
    TITLE "8:cjc139_4009"
    INDEX 01 10:58:44
  TRACK 237 AUDIO
    TITLE "0:"
    INDEX 01 11:01:19
